<svg xmlns:dc="http://purl.org/dc/elements/1.1/" xmlns:cc="http://creativecommons.org/ns#" xmlns:rdf="http://www.w3.org/1999/02/22-rdf-syntax-ns#" xmlns:svg="http://www.w3.org/2000/svg" xmlns="http://www.w3.org/2000/svg" xmlns:sodipodi="http://sodipodi.sourceforge.net/DTD/sodipodi-0.dtd" xmlns:inkscape="http://www.inkscape.org/namespaces/inkscape" version="1.1" x="0px" y="0px" viewBox="0 0 100 125"><g transform="translate(0,-952.36218)"><path style="text-indent:0;text-transform:none;direction:ltr;block-progression:tb;baseline-shift:baseline;color:#0074D5;enable-background:accumulate;" d="m 8.000189,1000.3573 a 2.0001999,2.0001999 0 1 0 0,3.9995 l 14.052543,0 a 2.0001999,2.0001999 0 1 0 0,-3.9995 l -14.052543,0 z" fill="#0074D5" fill-opacity="1" fill-rule="evenodd" stroke="none" marker="none" visibility="visible" display="inline" overflow="visible"/><path style="text-indent:0;text-transform:none;direction:ltr;block-progression:tb;baseline-shift:baseline;color:#0074D5;enable-background:accumulate;" d="m 77.947267,1000.3573 a 2.0001999,2.0001999 0 1 0 0,3.9995 l 14.052544,0 a 2.0001999,2.0001999 0 1 0 0,-3.9995 l -14.052544,0 z" fill="#0074D5" fill-opacity="1" fill-rule="evenodd" stroke="none" marker="none" visibility="visible" display="inline" overflow="visible"/><path style="text-indent:0;text-transform:none;direction:ltr;block-progression:tb;baseline-shift:baseline;color:#0074D5;enable-background:accumulate;" d="m 30.192346,1020.1067 a 2.0001999,2.0001999 0 0 0 -1.373031,0.6112 l -9.997653,10.0819 a 2.0001999,2.0001999 0 1 0 2.840173,2.8169 l 9.997689,-10.0818 a 2.0001999,2.0001999 0 0 0 -1.467178,-3.4282 z" fill="#0074D5" fill-opacity="1" fill-rule="evenodd" stroke="none" marker="none" visibility="visible" display="inline" overflow="visible"/><path style="text-indent:0;text-transform:none;direction:ltr;block-progression:tb;baseline-shift:baseline;color:#0074D5;enable-background:accumulate;" d="m 79.911605,970.32888 a 2.0001999,2.0001999 0 0 0 -1.37413,0.60899 l -10.194767,10.23906 a 2.0001999,2.0001999 0 1 0 2.834645,2.82246 l 10.194768,-10.24016 a 2.0001999,2.0001999 0 0 0 -1.460516,-3.43035 z" fill="#0074D5" fill-opacity="1" fill-rule="evenodd" stroke="none" marker="none" visibility="visible" display="inline" overflow="visible"/><path style="text-indent:0;text-transform:none;direction:ltr;block-progression:tb;baseline-shift:baseline;color:#0074D5;enable-background:accumulate;" d="m 49.969563,958.34808 a 2.0001999,2.0001999 0 0 0 -1.969867,2.02854 l 0,14.05917 a 2.0003035,2.0003035 0 0 0 4.000607,0 l 0,-14.05917 a 2.0001999,2.0001999 0 0 0 -2.03074,-2.02854 z" fill="#0074D5" fill-opacity="1" fill-rule="evenodd" stroke="none" marker="none" visibility="visible" display="inline" overflow="visible"/><path style="text-indent:0;text-transform:none;direction:ltr;block-progression:tb;baseline-shift:baseline;color:#0074D5;enable-background:accumulate;" d="m 49.969563,1028.2896 a 2.0001999,2.0001999 0 0 0 -1.969867,2.0285 l 0,14.0581 a 2.0003035,2.0003035 0 0 0 4.000607,0 l 0,-14.0581 a 2.0001999,2.0001999 0 0 0 -2.03074,-2.0285 z" fill="#0074D5" fill-opacity="1" fill-rule="evenodd" stroke="none" marker="none" visibility="visible" display="inline" overflow="visible"/><path style="text-indent:0;text-transform:none;direction:ltr;block-progression:tb;baseline-shift:baseline;color:#0074D5;enable-background:accumulate;" d="m 20.304323,970.64335 a 2.0001999,2.0001999 0 0 0 -1.400705,3.43148 l 9.919028,9.96332 a 2.0001999,2.0001999 0 1 0 2.834645,-2.82246 l -9.919027,-9.96335 a 2.0001999,2.0001999 0 0 0 -1.433941,-0.60899 z" fill="#0074D5" fill-opacity="1" fill-rule="evenodd" stroke="none" marker="none" visibility="visible" display="inline" overflow="visible"/><path style="text-indent:0;text-transform:none;direction:ltr;block-progression:tb;baseline-shift:baseline;color:#0074D5;enable-background:accumulate;" d="m 69.743412,1020.1056 a 2.0001999,2.0001999 0 0 0 -1.400704,3.4315 l 10.116141,10.1604 a 2.0001999,2.0001999 0 1 0 2.834646,-2.8224 l -10.116142,-10.1605 a 2.0001999,2.0001999 0 0 0 -1.433941,-0.609 z" fill="#0074D5" fill-opacity="1" fill-rule="evenodd" stroke="none" marker="none" visibility="visible" display="inline" overflow="visible"/></g><text x="0" y="115" fill="#fff" font-size="5px" font-weight="bold" font-family="'Helvetica Neue', Helvetica, Arial-Unicode, Arial, Sans-serif">Created by Royyan Razka</text><text x="0" y="120" fill="#fff" font-size="5px" font-weight="bold" font-family="'Helvetica Neue', Helvetica, Arial-Unicode, Arial, Sans-serif">from the Noun Project</text></svg>