<svg xmlns="http://www.w3.org/2000/svg" xmlns:xlink="http://www.w3.org/1999/xlink" version="1.1" x="0px" y="0px" viewBox="0 0 100 125" style="enable-background:new 0 0 100 100;" xml:space="preserve"><path d="M78.2,64.7c0-0.1,0-0.3,0-0.4c4-4.9,6.1-10.6,6.1-16.6c0-16.2-15.8-29.4-35.3-29.4S13.7,31.5,13.7,47.7  c0,16.2,15.8,29.4,35.3,29.4c4.8,0,9.4-0.8,13.8-2.3c4.4,4.4,10.3,6.9,16.5,6.9c1.2,0,2.3-0.1,3.5-0.3l3.6-0.5l-2.6-2.6  C80.2,74.7,78.2,69.8,78.2,64.7z M64.7,71.4l-0.9-1l-1.2,0.5c-4.3,1.7-8.9,2.5-13.6,2.5c-17.4,0-31.6-11.5-31.6-25.7  C17.4,33.5,31.6,22,49,22c17.4,0,31.6,11.5,31.6,25.7c0,5.3-2,10.3-5.6,14.6l-0.4,0.5l0,0.6c0,0.4,0,0.8,0,1.2  c0,4.8,1.5,9.5,4.2,13.3C73.3,77.8,68.2,75.5,64.7,71.4z"/></svg>