<svg xmlns="http://www.w3.org/2000/svg" xmlns:xlink="http://www.w3.org/1999/xlink" version="1.1" x="0px" y="0px" viewBox="0 0 24 30" style="enable-background:new 0 0 24 24;" xml:space="preserve"><path d="M10.635,18.074c1.878,0,3.649-0.69,5.027-1.948l4.636,4.636c0.06,0.06,0.139,0.09,0.218,0.09c0.079,0,0.158-0.03,0.218-0.09  c0.12-0.12,0.12-0.315,0-0.435l-4.639-4.639c2.718-2.923,2.663-7.508-0.182-10.353c-1.41-1.41-3.284-2.186-5.277-2.186  c-1.993,0-3.867,0.776-5.277,2.186c-2.91,2.91-2.91,7.644,0,10.554C6.768,17.298,8.642,18.074,10.635,18.074z M5.794,5.77  c1.293-1.293,3.013-2.005,4.842-2.005c1.828,0,3.548,0.712,4.842,2.005c2.669,2.67,2.669,7.014,0,9.683  c-1.294,1.293-3.013,2.005-4.842,2.005c-1.829,0-3.548-0.712-4.842-2.005C3.124,12.783,3.124,8.439,5.794,5.77z"/><text x="0" y="39" fill="#000000" font-size="5px" font-weight="bold" font-family="'Helvetica Neue', Helvetica, Arial-Unicode, Arial, Sans-serif">Created by AlePio</text><text x="0" y="44" fill="#000000" font-size="5px" font-weight="bold" font-family="'Helvetica Neue', Helvetica, Arial-Unicode, Arial, Sans-serif">from the Noun Project</text></svg>