<svg xmlns:dc="http://purl.org/dc/elements/1.1/" xmlns:cc="http://creativecommons.org/ns#" xmlns:rdf="http://www.w3.org/1999/02/22-rdf-syntax-ns#" xmlns:svg="http://www.w3.org/2000/svg" xmlns="http://www.w3.org/2000/svg" xmlns:sodipodi="http://sodipodi.sourceforge.net/DTD/sodipodi-0.dtd" xmlns:inkscape="http://www.inkscape.org/namespaces/inkscape" version="1.1" x="0px" y="0px" viewBox="0 0 100 125"><g transform="translate(0,-952.36218)"><path style="text-indent:0;text-transform:none;direction:ltr;block-progression:tb;baseline-shift:baseline;color:#0074D5;enable-background:accumulate;" d="m 74,959.36218 c -7.1678,0 -13,5.83214 -13,13 0,1.79197 0.3725,3.50776 1.0312,5.0625 l -26.9062,15.6875 c -2.3489,-2.31784 -5.5725,-3.75 -9.125,-3.75 -7.1678,0 -13,5.83214 -13,13.00002 0,7.1678 5.8322,13 13,13 3.5525,0 6.7761,-1.4322 9.125,-3.75 l 26.9062,15.6875 c -0.6587,1.5547 -1.0312,3.2705 -1.0312,5.0625 0,7.1678 5.8322,13 13,13 7.1678,0 13,-5.8322 13,-13 0,-7.1679 -5.8322,-13 -13,-13 -4.651,0 -8.7334,2.4736 -11.0312,6.1562 l -26.5313,-15.4375 c 1.6078,-2.1634 2.5625,-4.8224 2.5625,-7.7187 0,-2.89628 -0.9547,-5.55529 -2.5625,-7.71877 l 26.5313,-15.4375 c 2.2978,3.68267 6.3802,6.15625 11.0312,6.15625 7.1678,0 13,-5.83214 13,-13 0,-7.16786 -5.8322,-13 -13,-13 z m 0,2 c 6.087,0 11,4.91302 11,11 0,6.08698 -4.913,11 -11,11 -6.087,0 -11,-4.91302 -11,-11 0,-6.08698 4.913,-11 11,-11 z m -48,30 c 6.087,0 11,4.91302 11,11.00002 0,6.087 -4.913,11 -11,11 -6.087,0 -11,-4.913 -11,-11 0,-6.087 4.913,-11.00002 11,-11.00002 z m 48,30.00002 c 6.087,0 11,4.913 11,11 0,6.087 -4.913,11 -11,11 -6.087,0 -11,-4.913 -11,-11 0,-6.087 4.913,-11 11,-11 z" fill="#0074D5" fill-opacity="1" stroke="none" marker="none" visibility="visible" display="inline" overflow="visible"/></g></svg>