<svg xmlns="http://www.w3.org/2000/svg" xmlns:xlink="http://www.w3.org/1999/xlink" version="1.1" x="0px" y="0px" viewBox="0 0 100 125" style="enable-background:new 0 0 100 100;" xml:space="preserve"><style type="text/css">
	.st0{fill:none;stroke:#0074D5;stroke-miterlimit:10;}
</style><path class="st0" d="M79.2,80H55.1c-0.3,1.4-2,2.5-3.9,2.5s-3.6-1.1-3.9-2.5H23.1c-2.2,0-3.5-2.4-2.4-4.3l11.5-19.4  c-0.1-0.6-0.1-1.1-0.1-1.7V38.4c0-9.8,7.8-17.9,17.6-18.3c-0.6-0.5-1.1-1.2-1.1-2c0-1.4,1.1-2.5,2.5-2.5s2.5,1.1,2.5,2.5  c0,0.8-0.4,1.6-1.1,2c9.7,0.4,17.6,8.5,17.6,18.3v16.3c0,0.6,0,1.1-0.1,1.7l11.5,19.4C82.7,77.6,81.3,80,79.2,80z"/></svg>