<svg xmlns="http://www.w3.org/2000/svg" data-name="Layer 1" viewBox="0 0 100 125" x="0px" y="0px"><title>06</title><g data-name="Group"><path data-name="Compound Path" d="M30.94,32.22a6.17,6.17,0,1,0,0,8.72A6.17,6.17,0,0,0,30.94,32.22Zm-1.41,7.31a4.16,4.16,0,1,1,0-5.89A4.14,4.14,0,0,1,29.53,39.53Z"/><path data-name="Compound Path" d="M83.66,60.44a1,1,0,1,0,1.41,1.41l5.41-5.41a8,8,0,0,0,0-11.31L54.17,8.82a1,1,0,0,0-.67-.29L18.22,7.18a1,1,0,0,0-.74.29,1,1,0,0,0-.3.73l.17,9.33-9.14-.35a1,1,0,0,0-.74.29,1,1,0,0,0-.3.73l.64,34.58a1,1,0,0,0,.29.69l37,37a8,8,0,0,0,11.31,0l24-24a8,8,0,0,0,0-11.31L74.31,49l8.59-8.59,6.17,6.17a6,6,0,0,1,0,8.49ZM9.2,19.22,43,20.51,71.48,49,48.13,72.31,39,81.48,9.81,52.33ZM79.06,65l-24,24a6,6,0,0,1-8.49,0l-6.17-6.17,9.17-9.17L72.89,50.38l6.17,6.17A6,6,0,0,1,79.06,65ZM72.89,47.55,44.17,18.82a1,1,0,0,0-.67-.29l-24.14-.92L19.2,9.22,53,10.51,81.48,39Z"/></g></svg>