<svg xmlns="http://www.w3.org/2000/svg" xmlns:xlink="http://www.w3.org/1999/xlink" version="1.1" x="0px" y="0px" viewBox="0 0 24 30" style="enable-background:new 0 0 24 24;" xml:space="preserve"><g><path d="M12.114,10.473c0.139-0.071,0.193-0.241,0.122-0.379c-0.561-1.093-0.354-2.411,0.515-3.28l2.053-2.052   c1.099-1.099,2.888-1.099,3.987,0l0.448,0.448c1.099,1.099,1.099,2.888,0,3.987l-2.053,2.052c-0.868,0.869-2.186,1.076-3.279,0.515   c-0.138-0.071-0.308-0.016-0.379,0.122c-0.071,0.138-0.017,0.308,0.122,0.379c0.492,0.252,1.021,0.375,1.546,0.375   c0.875,0,1.737-0.341,2.389-0.993l2.053-2.052c1.319-1.319,1.319-3.465,0-4.784l-0.448-0.448c-1.319-1.319-3.465-1.319-4.784,0   l-2.053,2.052c-1.042,1.043-1.29,2.624-0.618,3.935C11.806,10.489,11.976,10.544,12.114,10.473z"/><path d="M4.811,19.637c0.66,0.659,1.526,0.989,2.392,0.989c0.866,0,1.732-0.33,2.392-0.989l2.053-2.053   c1.042-1.042,1.291-2.624,0.618-3.935c-0.071-0.138-0.241-0.194-0.379-0.122c-0.139,0.071-0.193,0.241-0.122,0.379   c0.56,1.093,0.354,2.411-0.515,3.279l-2.053,2.053c-1.099,1.099-2.888,1.099-3.987,0L4.762,18.79c-1.099-1.099-1.099-2.888,0-3.987   l2.053-2.052c0.869-0.869,2.186-1.075,3.279-0.515c0.138,0.072,0.309,0.017,0.379-0.122c0.071-0.138,0.017-0.308-0.122-0.379   c-1.312-0.673-2.893-0.424-3.935,0.618l-2.053,2.052c-1.319,1.319-1.319,3.465,0,4.784L4.811,19.637z"/><path d="M15.019,8.981c-0.11-0.11-0.289-0.11-0.399,0L8.981,14.62c-0.11,0.11-0.11,0.289,0,0.399   c0.055,0.055,0.127,0.083,0.199,0.083c0.072,0,0.144-0.028,0.199-0.083l5.639-5.639C15.129,9.27,15.129,9.092,15.019,8.981z"/></g></svg>