<svg xmlns="http://www.w3.org/2000/svg" xmlns:xlink="http://www.w3.org/1999/xlink" version="1.1" x="0px" y="0px" viewBox="0 0 100 125" style="enable-background:new 0 0 100 100;" xml:space="preserve"><g><path d="M23.5,72.9h31.8c7.1,0,12.9-5.8,13-12.9l15.6,10.1c0.6,0.4,1.3,0.6,2,0.6c0.6,0,1.2-0.1,1.7-0.5c1.2-0.7,2-1.9,2-3.3V33.1   c0-1.4-0.8-2.7-2-3.3c-1.2-0.6-2.6-0.6-3.7,0.1L68.3,39.9c-0.1-7.1-5.9-12.9-13-12.9H23.5c-7.2,0-13,5.8-13,13v19.9   C10.5,67.1,16.3,72.9,23.5,72.9z M85,31.6c0.5-0.3,1.1-0.4,1.7-0.1c0.6,0.3,0.9,0.9,0.9,1.6v33.8c0,0.7-0.3,1.3-0.9,1.6   c-0.5,0.3-1.1,0.3-1.7-0.1L68.3,57.7V42.3L85,31.6z M12.5,40.1c0-6.1,4.9-11,11-11h31.8c6.1,0,11,4.9,11,11v19.9   c0,6.1-4.9,11-11,11H23.5c-6.1,0-11-4.9-11-11V40.1z"/></g></svg>